<mxfile host="Electron" agent="Mozilla/5.0 (Windows NT 10.0; Win64; x64) AppleWebKit/537.36 (KHTML, like Gecko) draw.io/24.7.8 Chrome/128.0.6613.36 Electron/32.0.1 Safari/537.36" version="24.7.8">
  <diagram name="Page-1" id="ui7UodZEA2GwbFAmkmNJ">
    <mxGraphModel dx="1418" dy="738" grid="0" gridSize="10" guides="1" tooltips="1" connect="1" arrows="1" fold="1" page="1" pageScale="1" pageWidth="827" pageHeight="1169" math="0" shadow="0">
      <root>
        <mxCell id="0" />
        <mxCell id="1" parent="0" />
        <mxCell id="HCo614Bn0KOdt1yx_FUW-6" value="" style="rounded=0;whiteSpace=wrap;html=1;sketch=1;hachureGap=4;jiggle=2;curveFitting=1;fontFamily=Architects Daughter;fontSource=https%3A%2F%2Ffonts.googleapis.com%2Fcss%3Ffamily%3DArchitects%2BDaughter;fontSize=20;dashed=1;" parent="1" vertex="1">
          <mxGeometry x="8" y="310" width="838" height="335" as="geometry" />
        </mxCell>
        <mxCell id="HCo614Bn0KOdt1yx_FUW-18" value="" style="endArrow=classic;html=1;rounded=0;sketch=1;hachureGap=4;jiggle=2;curveFitting=1;fontFamily=Architects Daughter;fontSource=https%3A%2F%2Ffonts.googleapis.com%2Fcss%3Ffamily%3DArchitects%2BDaughter;fontSize=16;" parent="1" edge="1">
          <mxGeometry width="50" height="50" relative="1" as="geometry">
            <mxPoint x="243.5" y="675" as="sourcePoint" />
            <mxPoint x="240.5" y="609" as="targetPoint" />
          </mxGeometry>
        </mxCell>
        <mxCell id="HCo614Bn0KOdt1yx_FUW-32" value="&lt;br&gt;&lt;br&gt;&lt;br&gt;Storage" style="aspect=fixed;sketch=0;html=1;dashed=0;whitespace=wrap;fillColor=#2875E2;strokeColor=#ffffff;points=[[0.005,0.63,0],[0.1,0.2,0],[0.9,0.2,0],[0.5,0,0],[0.995,0.63,0],[0.72,0.99,0],[0.5,1,0],[0.28,0.99,0]];shape=mxgraph.kubernetes.icon2;prIcon=api;hachureGap=4;jiggle=2;curveFitting=1;fontFamily=Architects Daughter;fontSource=https%3A%2F%2Ffonts.googleapis.com%2Fcss%3Ffamily%3DArchitects%2BDaughter;fontSize=20;" parent="1" vertex="1">
          <mxGeometry x="86" y="417" width="50" height="48" as="geometry" />
        </mxCell>
        <mxCell id="HCo614Bn0KOdt1yx_FUW-42" style="edgeStyle=orthogonalEdgeStyle;rounded=0;sketch=1;hachureGap=4;jiggle=2;curveFitting=1;orthogonalLoop=1;jettySize=auto;html=1;fontFamily=Architects Daughter;fontSource=https%3A%2F%2Ffonts.googleapis.com%2Fcss%3Ffamily%3DArchitects%2BDaughter;fontSize=16;dashed=1;dashPattern=1 4;" parent="1" source="HCo614Bn0KOdt1yx_FUW-35" target="HCo614Bn0KOdt1yx_FUW-32" edge="1">
          <mxGeometry relative="1" as="geometry">
            <Array as="points">
              <mxPoint x="245" y="427" />
              <mxPoint x="245" y="427" />
            </Array>
          </mxGeometry>
        </mxCell>
        <mxCell id="HCo614Bn0KOdt1yx_FUW-35" value="&lt;br&gt;&lt;br&gt;&lt;br&gt;Documents" style="aspect=fixed;sketch=0;html=1;dashed=0;whitespace=wrap;fillColor=#2875E2;strokeColor=#ffffff;points=[[0.005,0.63,0],[0.1,0.2,0],[0.9,0.2,0],[0.5,0,0],[0.995,0.63,0],[0.72,0.99,0],[0.5,1,0],[0.28,0.99,0]];shape=mxgraph.kubernetes.icon2;prIcon=api;hachureGap=4;jiggle=2;curveFitting=1;fontFamily=Architects Daughter;fontSource=https%3A%2F%2Ffonts.googleapis.com%2Fcss%3Ffamily%3DArchitects%2BDaughter;fontSize=20;direction=south;" parent="1" vertex="1">
          <mxGeometry x="314" y="408" width="48" height="50" as="geometry" />
        </mxCell>
        <mxCell id="HCo614Bn0KOdt1yx_FUW-95" style="edgeStyle=orthogonalEdgeStyle;rounded=0;sketch=1;hachureGap=4;jiggle=2;curveFitting=1;orthogonalLoop=1;jettySize=auto;html=1;exitX=0.995;exitY=0.63;exitDx=0;exitDy=0;exitPerimeter=0;fontFamily=Architects Daughter;fontSource=https%3A%2F%2Ffonts.googleapis.com%2Fcss%3Ffamily%3DArchitects%2BDaughter;fontSize=16;dashed=1;dashPattern=1 4;" parent="1" source="HCo614Bn0KOdt1yx_FUW-36" target="HCo614Bn0KOdt1yx_FUW-35" edge="1">
          <mxGeometry relative="1" as="geometry" />
        </mxCell>
        <mxCell id="HCo614Bn0KOdt1yx_FUW-96" style="edgeStyle=orthogonalEdgeStyle;rounded=0;sketch=1;hachureGap=4;jiggle=2;curveFitting=1;orthogonalLoop=1;jettySize=auto;html=1;exitX=0.995;exitY=0.63;exitDx=0;exitDy=0;exitPerimeter=0;fontFamily=Architects Daughter;fontSource=https%3A%2F%2Ffonts.googleapis.com%2Fcss%3Ffamily%3DArchitects%2BDaughter;fontSize=16;dashed=1;dashPattern=1 4;" parent="1" source="HCo614Bn0KOdt1yx_FUW-36" target="HCo614Bn0KOdt1yx_FUW-77" edge="1">
          <mxGeometry relative="1" as="geometry" />
        </mxCell>
        <mxCell id="HCo614Bn0KOdt1yx_FUW-36" value="&lt;br&gt;&lt;br&gt;&lt;br&gt;&lt;br&gt;BFF" style="aspect=fixed;sketch=0;html=1;dashed=0;whitespace=wrap;fillColor=#647687;strokeColor=#314354;points=[[0.005,0.63,0],[0.1,0.2,0],[0.9,0.2,0],[0.5,0,0],[0.995,0.63,0],[0.72,0.99,0],[0.5,1,0],[0.28,0.99,0]];shape=mxgraph.kubernetes.icon2;prIcon=api;hachureGap=4;jiggle=2;curveFitting=1;fontFamily=Architects Daughter;fontSource=https%3A%2F%2Ffonts.googleapis.com%2Fcss%3Ffamily%3DArchitects%2BDaughter;fontSize=20;fontColor=#ffffff;" parent="1" vertex="1">
          <mxGeometry x="217" y="522" width="50" height="48" as="geometry" />
        </mxCell>
        <mxCell id="HCo614Bn0KOdt1yx_FUW-39" value="Apache Kafka" style="rounded=1;whiteSpace=wrap;html=1;sketch=1;hachureGap=4;jiggle=2;curveFitting=1;fontFamily=Architects Daughter;fontSource=https%3A%2F%2Ffonts.googleapis.com%2Fcss%3Ffamily%3DArchitects%2BDaughter;fontSize=20;strokeColor=#3399FF;gradientColor=none;gradientDirection=radial;strokeWidth=2;" parent="1" vertex="1">
          <mxGeometry x="33" y="323" width="790" height="37" as="geometry" />
        </mxCell>
        <mxCell id="HCo614Bn0KOdt1yx_FUW-60" style="edgeStyle=orthogonalEdgeStyle;rounded=0;sketch=1;hachureGap=4;jiggle=2;curveFitting=1;orthogonalLoop=1;jettySize=auto;html=1;exitX=0.5;exitY=0;exitDx=0;exitDy=0;exitPerimeter=0;entryX=0.995;entryY=0.63;entryDx=0;entryDy=0;entryPerimeter=0;fontFamily=Architects Daughter;fontSource=https%3A%2F%2Ffonts.googleapis.com%2Fcss%3Ffamily%3DArchitects%2BDaughter;fontSize=16;dashed=1;dashPattern=1 4;" parent="1" source="HCo614Bn0KOdt1yx_FUW-36" target="HCo614Bn0KOdt1yx_FUW-32" edge="1">
          <mxGeometry relative="1" as="geometry" />
        </mxCell>
        <mxCell id="HCo614Bn0KOdt1yx_FUW-61" value="&lt;br&gt;&lt;br&gt;&lt;br&gt;NotificationHub" style="aspect=fixed;sketch=0;html=1;dashed=0;whitespace=wrap;fillColor=#2875E2;strokeColor=#ffffff;points=[[0.005,0.63,0],[0.1,0.2,0],[0.9,0.2,0],[0.5,0,0],[0.995,0.63,0],[0.72,0.99,0],[0.5,1,0],[0.28,0.99,0]];shape=mxgraph.kubernetes.icon2;prIcon=api;hachureGap=4;jiggle=2;curveFitting=1;fontFamily=Architects Daughter;fontSource=https%3A%2F%2Ffonts.googleapis.com%2Fcss%3Ffamily%3DArchitects%2BDaughter;fontSize=20;" parent="1" vertex="1">
          <mxGeometry x="641" y="469.00000000000006" width="50" height="48" as="geometry" />
        </mxCell>
        <mxCell id="HCo614Bn0KOdt1yx_FUW-65" style="edgeStyle=orthogonalEdgeStyle;rounded=0;sketch=1;hachureGap=4;jiggle=2;curveFitting=1;orthogonalLoop=1;jettySize=auto;html=1;exitX=0.5;exitY=0;exitDx=0;exitDy=0;exitPerimeter=0;entryX=0.8;entryY=1.002;entryDx=0;entryDy=0;entryPerimeter=0;fontFamily=Architects Daughter;fontSource=https%3A%2F%2Ffonts.googleapis.com%2Fcss%3Ffamily%3DArchitects%2BDaughter;fontSize=16;dashed=1;dashPattern=1 4;" parent="1" source="HCo614Bn0KOdt1yx_FUW-61" target="HCo614Bn0KOdt1yx_FUW-39" edge="1">
          <mxGeometry relative="1" as="geometry">
            <mxPoint x="757.4000000000001" y="360.0040000000001" as="targetPoint" />
          </mxGeometry>
        </mxCell>
        <mxCell id="HCo614Bn0KOdt1yx_FUW-68" style="edgeStyle=orthogonalEdgeStyle;rounded=0;sketch=1;hachureGap=4;jiggle=2;curveFitting=1;orthogonalLoop=1;jettySize=auto;html=1;fontFamily=Architects Daughter;fontSource=https%3A%2F%2Ffonts.googleapis.com%2Fcss%3Ffamily%3DArchitects%2BDaughter;fontSize=16;dashed=1;dashPattern=1 4;" parent="1" source="HCo614Bn0KOdt1yx_FUW-75" edge="1">
          <mxGeometry relative="1" as="geometry">
            <mxPoint x="757" y="668" as="sourcePoint" />
            <mxPoint x="666" y="546" as="targetPoint" />
          </mxGeometry>
        </mxCell>
        <mxCell id="HCo614Bn0KOdt1yx_FUW-74" value="http://*:8080" style="text;html=1;strokeColor=none;fillColor=none;align=center;verticalAlign=middle;whiteSpace=wrap;rounded=0;fontSize=20;fontFamily=Architects Daughter;" parent="1" vertex="1">
          <mxGeometry x="212" y="671" width="60" height="30" as="geometry" />
        </mxCell>
        <mxCell id="HCo614Bn0KOdt1yx_FUW-75" value="ws://*:8081" style="text;html=1;strokeColor=none;fillColor=none;align=center;verticalAlign=middle;whiteSpace=wrap;rounded=0;fontSize=20;fontFamily=Architects Daughter;" parent="1" vertex="1">
          <mxGeometry x="625" y="668" width="82" height="30" as="geometry" />
        </mxCell>
        <mxCell id="HCo614Bn0KOdt1yx_FUW-80" value="&lt;br&gt;&lt;br&gt;&lt;br&gt;Customers" style="aspect=fixed;sketch=0;html=1;dashed=0;whitespace=wrap;fillColor=#647687;strokeColor=#314354;points=[[0.005,0.63,0],[0.1,0.2,0],[0.9,0.2,0],[0.5,0,0],[0.995,0.63,0],[0.72,0.99,0],[0.5,1,0],[0.28,0.99,0]];shape=mxgraph.kubernetes.icon2;prIcon=api;hachureGap=4;jiggle=2;curveFitting=1;fontFamily=Architects Daughter;fontSource=https%3A%2F%2Ffonts.googleapis.com%2Fcss%3Ffamily%3DArchitects%2BDaughter;fontSize=20;fontColor=#ffffff;" parent="1" vertex="1">
          <mxGeometry x="533" y="402.00000000000006" width="50" height="48" as="geometry" />
        </mxCell>
        <mxCell id="HCo614Bn0KOdt1yx_FUW-90" value="" style="shadow=0;dashed=0;html=1;labelPosition=center;verticalLabelPosition=bottom;verticalAlign=top;align=center;outlineConnect=0;shape=mxgraph.veeam.3d.datastore_volume;hachureGap=4;fontFamily=Architects Daughter;fontSource=https%3A%2F%2Ffonts.googleapis.com%2Fcss%3Ffamily%3DArchitects%2BDaughter;fontSize=20;" parent="1" vertex="1">
          <mxGeometry x="84" y="383" width="54" height="34" as="geometry" />
        </mxCell>
        <mxCell id="HCo614Bn0KOdt1yx_FUW-92" style="edgeStyle=orthogonalEdgeStyle;rounded=0;sketch=1;hachureGap=4;jiggle=2;curveFitting=1;orthogonalLoop=1;jettySize=auto;html=1;exitX=0.005;exitY=0.63;exitDx=0;exitDy=0;exitPerimeter=0;entryX=0.378;entryY=1.022;entryDx=0;entryDy=0;entryPerimeter=0;fontFamily=Architects Daughter;fontSource=https%3A%2F%2Ffonts.googleapis.com%2Fcss%3Ffamily%3DArchitects%2BDaughter;fontSize=16;dashed=1;dashPattern=1 4;" parent="1" source="HCo614Bn0KOdt1yx_FUW-35" target="HCo614Bn0KOdt1yx_FUW-39" edge="1">
          <mxGeometry relative="1" as="geometry" />
        </mxCell>
        <mxCell id="HCo614Bn0KOdt1yx_FUW-93" style="edgeStyle=orthogonalEdgeStyle;rounded=0;sketch=1;hachureGap=4;jiggle=2;curveFitting=1;orthogonalLoop=1;jettySize=auto;html=1;exitX=0.5;exitY=0;exitDx=0;exitDy=0;exitPerimeter=0;entryX=0.005;entryY=0.63;entryDx=0;entryDy=0;entryPerimeter=0;fontFamily=Architects Daughter;fontSource=https%3A%2F%2Ffonts.googleapis.com%2Fcss%3Ffamily%3DArchitects%2BDaughter;fontSize=16;dashed=1;dashPattern=1 4;" parent="1" source="HCo614Bn0KOdt1yx_FUW-35" target="HCo614Bn0KOdt1yx_FUW-77" edge="1">
          <mxGeometry relative="1" as="geometry" />
        </mxCell>
        <mxCell id="HCo614Bn0KOdt1yx_FUW-94" style="edgeStyle=orthogonalEdgeStyle;rounded=0;sketch=1;hachureGap=4;jiggle=2;curveFitting=1;orthogonalLoop=1;jettySize=auto;html=1;exitX=0.1;exitY=0.2;exitDx=0;exitDy=0;exitPerimeter=0;entryX=0.1;entryY=0.2;entryDx=0;entryDy=0;entryPerimeter=0;fontFamily=Architects Daughter;fontSource=https%3A%2F%2Ffonts.googleapis.com%2Fcss%3Ffamily%3DArchitects%2BDaughter;fontSize=16;dashed=1;dashPattern=1 4;" parent="1" source="HCo614Bn0KOdt1yx_FUW-35" target="HCo614Bn0KOdt1yx_FUW-80" edge="1">
          <mxGeometry relative="1" as="geometry" />
        </mxCell>
        <mxCell id="HCo614Bn0KOdt1yx_FUW-77" value="&lt;br&gt;&lt;br&gt;&lt;br&gt;&lt;br&gt;Users" style="aspect=fixed;sketch=0;html=1;dashed=0;whitespace=wrap;fillColor=#647687;strokeColor=#314354;points=[[0.005,0.63,0],[0.1,0.2,0],[0.9,0.2,0],[0.5,0,0],[0.995,0.63,0],[0.72,0.99,0],[0.5,1,0],[0.28,0.99,0]];shape=mxgraph.kubernetes.icon2;prIcon=api;hachureGap=4;jiggle=2;curveFitting=1;fontFamily=Architects Daughter;fontSource=https%3A%2F%2Ffonts.googleapis.com%2Fcss%3Ffamily%3DArchitects%2BDaughter;fontSize=20;fontColor=#ffffff;" parent="1" vertex="1">
          <mxGeometry x="432" y="404" width="45.84" height="44" as="geometry" />
        </mxCell>
        <mxCell id="HCo614Bn0KOdt1yx_FUW-97" style="edgeStyle=orthogonalEdgeStyle;rounded=0;sketch=1;hachureGap=4;jiggle=2;curveFitting=1;orthogonalLoop=1;jettySize=auto;html=1;exitX=0.995;exitY=0.63;exitDx=0;exitDy=0;exitPerimeter=0;entryX=0.5;entryY=1;entryDx=0;entryDy=0;entryPerimeter=0;fontFamily=Architects Daughter;fontSource=https%3A%2F%2Ffonts.googleapis.com%2Fcss%3Ffamily%3DArchitects%2BDaughter;fontSize=16;dashed=1;dashPattern=1 4;" parent="1" source="HCo614Bn0KOdt1yx_FUW-36" target="HCo614Bn0KOdt1yx_FUW-80" edge="1">
          <mxGeometry relative="1" as="geometry" />
        </mxCell>
        <mxCell id="HCo614Bn0KOdt1yx_FUW-98" style="edgeStyle=orthogonalEdgeStyle;rounded=0;sketch=1;hachureGap=4;jiggle=2;curveFitting=1;orthogonalLoop=1;jettySize=auto;html=1;exitX=0.5;exitY=0;exitDx=0;exitDy=0;exitPerimeter=0;entryX=0.532;entryY=1.002;entryDx=0;entryDy=0;entryPerimeter=0;fontFamily=Architects Daughter;fontSource=https%3A%2F%2Ffonts.googleapis.com%2Fcss%3Ffamily%3DArchitects%2BDaughter;fontSize=16;dashed=1;dashPattern=1 4;" parent="1" source="HCo614Bn0KOdt1yx_FUW-77" target="HCo614Bn0KOdt1yx_FUW-39" edge="1">
          <mxGeometry relative="1" as="geometry" />
        </mxCell>
        <mxCell id="HCo614Bn0KOdt1yx_FUW-99" style="edgeStyle=orthogonalEdgeStyle;rounded=0;sketch=1;hachureGap=4;jiggle=2;curveFitting=1;orthogonalLoop=1;jettySize=auto;html=1;exitX=0.5;exitY=0;exitDx=0;exitDy=0;exitPerimeter=0;entryX=0.665;entryY=1.081;entryDx=0;entryDy=0;entryPerimeter=0;fontFamily=Architects Daughter;fontSource=https%3A%2F%2Ffonts.googleapis.com%2Fcss%3Ffamily%3DArchitects%2BDaughter;fontSize=16;dashed=1;dashPattern=1 4;" parent="1" source="HCo614Bn0KOdt1yx_FUW-80" target="HCo614Bn0KOdt1yx_FUW-39" edge="1">
          <mxGeometry relative="1" as="geometry" />
        </mxCell>
        <mxCell id="HCo614Bn0KOdt1yx_FUW-101" style="edgeStyle=orthogonalEdgeStyle;rounded=0;sketch=1;hachureGap=4;jiggle=2;curveFitting=1;orthogonalLoop=1;jettySize=auto;html=1;exitX=0.005;exitY=0.63;exitDx=0;exitDy=0;exitPerimeter=0;entryX=0.995;entryY=0.63;entryDx=0;entryDy=0;entryPerimeter=0;fontFamily=Architects Daughter;fontSource=https%3A%2F%2Ffonts.googleapis.com%2Fcss%3Ffamily%3DArchitects%2BDaughter;fontSize=16;dashed=1;dashPattern=1 4;" parent="1" edge="1">
          <mxGeometry relative="1" as="geometry">
            <mxPoint x="533.25" y="434.24" as="sourcePoint" />
            <mxPoint x="477.6107999999999" y="433.72" as="targetPoint" />
          </mxGeometry>
        </mxCell>
      </root>
    </mxGraphModel>
  </diagram>
</mxfile>
